<?xml version="1.0" standalone="no"?>
<!DOCTYPE svg PUBLIC "-//W3C//DTD SVG 20010904//EN"
 "http://www.w3.org/TR/2001/REC-SVG-20010904/DTD/svg10.dtd">
<svg version="1.0" xmlns="http://www.w3.org/2000/svg"
 width="272.000000pt" height="272.000000pt" viewBox="0 0 272.000000 272.000000"
 preserveAspectRatio="xMidYMid meet">
<metadata>
Created by potrace 1.14, written by Peter Selinger 2001-2017
</metadata>
<g transform="translate(0.000000,272.000000) scale(0.100000,-0.100000)"
fill="#000000" stroke="none">
<path d="M897 2414 c-1 -1 -36 -5 -77 -9 -41 -4 -82 -11 -90 -16 -15 -8 30
-11 182 -11 55 0 69 -3 85 -21 17 -19 128 -173 146 -203 4 -7 -2 -23 -13 -37
-38 -48 -70 -180 -55 -228 5 -15 9 -16 33 -4 15 7 61 27 102 45 41 18 94 41
118 52 24 10 55 17 70 15 15 -3 87 -30 159 -62 73 -31 138 -53 144 -49 20 12
1 124 -34 196 l-33 66 69 99 c38 54 72 105 77 113 8 15 37 17 234 19 50 1 58
9 15 16 -70 11 -111 16 -177 21 l-73 6 -39 -40 c-21 -22 -63 -74 -95 -116 -31
-42 -59 -76 -62 -76 -3 0 -17 9 -32 19 -15 11 -56 29 -91 41 -53 18 -71 20
-105 11 -51 -13 -132 -48 -140 -61 -12 -19 -25 -10 -66 47 -54 72 -76 99 -116
141 -29 30 -37 33 -83 31 -27 -2 -51 -4 -53 -5z"/>
<path d="M1907 1859 c-71 -43 -133 -79 -139 -79 -7 0 -30 8 -52 18 -139 63
-217 94 -230 89 -7 -3 -24 -26 -37 -51 -21 -42 -26 -46 -59 -46 -33 0 -38 4
-65 54 l-29 53 -70 -29 c-154 -65 -222 -100 -243 -125 l-22 -25 -48 52 c-54
59 -96 82 -139 74 -36 -6 -211 -90 -279 -132 -76 -48 -55 -41 120 38 36 17
133 51 157 55 38 8 56 -4 108 -67 47 -59 48 -63 35 -87 -28 -50 -45 -122 -45
-186 0 -36 -4 -65 -9 -65 -5 0 -47 30 -95 66 -131 100 -166 98 -310 -16 -94
-75 -206 -176 -185 -168 8 3 66 43 129 88 140 101 207 134 242 121 21 -8 128
-92 176 -138 8 -7 22 -18 33 -23 17 -10 19 -22 19 -120 0 -61 -1 -110 -2 -111
-2 0 -25 -3 -53 -5 -70 -8 -128 -38 -157 -82 -37 -54 -68 -112 -68 -123 0 -19
-62 -103 -103 -141 -22 -21 -63 -50 -91 -64 -37 -19 -43 -24 -21 -19 109 24
205 103 272 225 61 111 100 140 184 140 31 0 39 -4 39 -19 0 -16 -39 -68 -92
-123 -50 -51 0 -13 170 129 359 301 427 358 432 363 3 3 26 22 52 43 26 21 53
43 60 50 7 7 38 32 68 57 30 25 60 49 66 55 15 13 31 27 237 199 154 129 187
158 175 155 -2 0 -61 -36 -131 -80z"/>
<path d="M2009 1673 c-35 -43 -66 -80 -69 -83 -5 -4 -76 -89 -182 -215 -9 -11
-71 -85 -138 -165 -67 -80 -146 -175 -175 -211 -30 -36 -60 -72 -67 -80 -16
-17 -391 -465 -462 -553 -28 -34 -41 -54 -30 -45 10 8 35 28 55 45 19 16 51
41 70 55 19 15 72 56 118 93 73 57 85 63 98 51 14 -14 25 -17 58 -17 27 0 32
2 70 32 l38 30 20 -21 c32 -34 81 -51 114 -38 36 14 297 272 329 325 20 34 51
116 53 142 1 12 54 14 91 3 45 -13 79 -49 120 -125 68 -124 148 -194 259 -226
43 -12 39 -5 -14 20 -76 37 -135 104 -198 227 -73 138 -110 169 -218 177 l-34
2 -3 110 -2 109 67 55 c140 114 156 124 190 123 33 -1 139 -65 263 -158 30
-23 61 -45 69 -50 24 -14 1 15 -37 49 -20 17 -40 36 -46 41 -36 35 -157 126
-191 144 -73 39 -106 29 -233 -69 l-77 -60 -3 36 c-3 35 9 59 150 292 31 51
15 38 -53 -45z"/>
</g>
</svg>
